# xmcd
#
# Track frame offsets: 
#        150
#        33204
#        63959
#        120612
#        144058
#        188054
#        215475
#        237321
#        265142
#        283669
#
# Disc length: 4125 seconds
#
# Revision: 0
# Processed by: cddbd v1.5.2PL0 Copyright (c) Steve Scherf et al.
# Submitted via: ExactAudioCopy v1.0b1
#
DISCID=8a101b0a
DTITLE=Eric Clapton  - Remarkable Milestone - Royal Albert Hall  5-19-
DTITLE=09l - Disc 1
DYEAR=1900
DGENRE=
TTITLE0=Going Down Slow
TTITLE1=Key To The Highway
TTITLE2=Old Love
TTITLE3=Anything For Your Love
TTITLE4=I Shot The Sheriff
TTITLE5=Layla
TTITLE6=Lay Down Sally
TTITLE7=Not Dark Yet
TTITLE8=Anything For You
TTITLE9=Somewhere Over The Rainbow
EXTD=
EXTT0=
EXTT1=
EXTT2=
EXTT3=
EXTT4=
EXTT5=
EXTT6=
EXTT7=
EXTT8=
EXTT9=
PLAYORDER=
